# xmcd
#
# Track frame offsets:
# 225
# 16326
# 32661
# 49725
# 61874
# 76298
# 94522
# 113920
# 127816
# 145036
# 161894
# 178471
# 202251
#
# Disc length: 2916 seconds
#
#
# Revision: 0
# Processed by: cddbd v1.4PL0 Copyright (c) Steve Scherf et al.
# Submitted via: FreeRIP 2.00 
#
DISCID=af0b610d
DTITLE=Shania Twain - Two Hearts One Love
DYEAR=1900
DGENRE=Country
TTITLE0=For the Love of Him
TTITLE1=Two Hearts One Love
TTITLE2=The Rythm Made Me Do It
TTITLE3=Bite My Lip
TTITLE4=Half Breed
TTITLE5=Hate to Love
TTITLE6=I Lost My Heart When I Found You
TTITLE7=Wild and Wicked
TTITLE8=(Don't Gimme That) Once Over
TTITLE9=Send It With Love
TTITLE10=LUV Eyes
TTITLE11=For the Love of Him (Dance Mix)
TTITLE12=LUV Eyes (Club Mix - Bonus Track)
EXTD=
EXTT0=
EXTT1=
EXTT2=
EXTT3=
EXTT4=
EXTT5=
EXTT6=
EXTT7=
EXTT8=
EXTT9=
EXTT10=
EXTT11=
EXTT12=
PLAYORDER=
